<svg width="196" height="190" viewBox="0 0 196 190" fill="none" xmlns="http://www.w3.org/2000/svg">
<path fill-rule="evenodd" clip-rule="evenodd" d="M48.722 70.6409H69.1346V90.9199H48.722V70.6409ZM99.6201 121.508H104.806V126.618H99.6201V121.508ZM89.6201 121.508H94.8305V126.352H84.4178V116.414H89.434V111.368H94.5635V101.31H99.79V106.25H104.741V111.36H99.79V116.47H89.6201V121.5V121.508ZM74.1751 111.288H79.2156V106.178H74.3612V101.067H79.2156V95.9573H74.256V101.067H69.0456V95.9573H74.167V80.7804H79.3693V95.9492H84.4098V101.059H89.3693V95.9492H94.5716V101.059H89.6201V106.169H84.4178V116.228H79.3774V126.376H74.1751V111.288ZM99.5392 95.9492H104.741V101.059H99.5392V95.9492ZM58.8919 95.9492H64.0942V101.059H58.8919V95.9492ZM48.722 95.9492H53.9243V101.059H48.722V95.9492ZM74.1751 70.6409H79.3774V75.751H74.1751V70.6409ZM48.6411 106.25H69.0456V126.529H48.6411V106.25ZM53.6006 111.191H64.1185V121.613H53.6006V111.191ZM84.345 70.6489H104.741V90.9199H84.3369V70.6409L84.345 70.6489ZM89.3046 75.5734H99.8224V85.9954H89.3046V75.5653V75.5734ZM53.7058 75.5734H64.2236V85.9954H53.7058V75.5653V75.5734Z" fill="#333333"/>
<path d="M38.7598 133.497C38.7599 135.074 40.039 136.353 41.6162 136.354H57.0273V141.113H41.6162L41.2236 141.104C37.1999 140.899 34.0001 137.572 34 133.497V117.908H38.7598V133.497ZM119.113 133.497C119.113 137.703 115.703 141.113 111.497 141.113H96.6709V136.354H111.497C113.074 136.353 114.353 135.074 114.354 133.497V117.908H119.113V133.497ZM57.0273 60.7598H41.6162C40.0389 60.7598 38.7598 62.0389 38.7598 63.6162V78.2646H34V63.6162C34 59.5416 37.1998 56.214 41.2236 56.0098L41.6162 56H57.0273V60.7598ZM111.497 56C115.703 56.0002 119.113 59.4101 119.113 63.6162V78.2646H114.354V63.6162C114.354 62.039 113.074 60.7599 111.497 60.7598H96.6709V56H111.497Z" fill="#EAEAEA"/>
<rect x="103.115" y="122.833" width="43.8933" height="60.7874" rx="21.9466" fill="white" stroke="#333333" stroke-width="4.75884"/>
<path d="M126.276 133.265C125.584 132.768 124.259 130.405 124.496 124.923V123.135L126.276 122.241L133.099 124.923L139.922 128.498L146.746 139.522L146.152 151.439H124.496V146.076L128.056 144.587L128.649 136.244L126.276 133.265Z" fill="#20CBCA"/>
<rect x="121.507" y="132.367" width="7.10752" height="11.9257" rx="3.55376" fill="white" stroke="#333333" stroke-width="4.75884"/>
<line x1="149.387" y1="151.435" x2="103.108" y2="151.435" stroke="#333333" stroke-width="4.75884"/>
<line x1="125.067" y1="124.029" x2="125.067" y2="130.583" stroke="#333333" stroke-width="4.75884"/>
<line x1="125.067" y1="144.885" x2="125.067" y2="151.439" stroke="#333333" stroke-width="4.75884"/>
<line x1="155.92" y1="139.526" x2="163.621" y2="139.526" stroke="#20CBCA" stroke-width="4.75884" stroke-linecap="round"/>
<line x1="2.37942" y1="-2.37942" x2="9.82973" y2="-2.37942" transform="matrix(0.865092 -0.501613 0.498388 0.866954 151.531 132.934)" stroke="#20CBCA" stroke-width="4.75884" stroke-linecap="round"/>
<line x1="2.37942" y1="-2.37942" x2="9.85601" y2="-2.37942" transform="matrix(0.498388 -0.866954 0.865092 0.501613 147.009 124.702)" stroke="#20CBCA" stroke-width="4.75884" stroke-linecap="round"/>
<rect x="103.115" y="122.833" width="43.8933" height="60.7874" rx="21.9466" stroke="#333333" stroke-width="4.75884"/>
</svg>
