<svg width="132" height="130" viewBox="0 0 132 130" fill="none" xmlns="http://www.w3.org/2000/svg">
<path fill-rule="evenodd" clip-rule="evenodd" d="M14.722 14.6409H35.1346V34.9199H14.722V14.6409ZM65.6201 65.5079H70.8062V70.618H65.6201V65.5079ZM55.6201 65.5079H60.8305V70.3516H50.4178V60.4139H55.434V55.3684H60.5635V45.3096H65.79V50.2502H70.7415V55.3603H65.79V60.4704H55.6201V65.4998V65.5079ZM40.1751 55.2877H45.2156V50.1775H40.3612V45.0674H45.2156V39.9573H40.256V45.0674H35.0456V39.9573H40.167V24.7804H45.3693V39.9492H50.4098V45.0594H55.3693V39.9492H60.5716V45.0594H55.6201V50.1695H50.4178V60.2282H45.3774V70.3758H40.1751V55.2877ZM65.5392 39.9492H70.7415V45.0594H65.5392V39.9492ZM24.8919 39.9492H30.0942V45.0594H24.8919V39.9492ZM14.722 39.9492H19.9243V45.0594H14.722V39.9492ZM40.1751 14.6409H45.3774V19.751H40.1751V14.6409ZM14.6411 50.2502H35.0456V70.5292H14.6411V50.2502ZM19.6006 55.1908H30.1185V65.6128H19.6006V55.1908ZM50.345 14.6489H70.7415V34.9199H50.3369V14.6409L50.345 14.6489ZM55.3046 19.5734H65.8224V29.9954H55.3046V19.5653V19.5734ZM19.7058 19.5734H30.2236V29.9954H19.7058V19.5653V19.5734Z" fill="#333333"/>
<path d="M4.75977 77.4971C4.75989 79.0743 6.039 80.3535 7.61621 80.3535H23.0273V85.1133H7.61621L7.22363 85.1035C3.19989 84.8993 0.000119832 81.5715 0 77.4971V61.9082H4.75977V77.4971ZM85.1133 77.4971C85.1132 81.703 81.703 85.1131 77.4971 85.1133H62.6709V80.3535H77.4971C79.0742 80.3533 80.3534 79.0742 80.3535 77.4971V61.9082H85.1133V77.4971ZM23.0273 4.75977H7.61621C6.03893 4.7598 4.75977 6.03891 4.75977 7.61621V22.2646H0V7.61621C0 3.54163 3.19981 0.213972 7.22363 0.00976562L7.61621 0H23.0273V4.75977ZM77.4971 0C81.7031 0.000164942 85.1133 3.41014 85.1133 7.61621V22.2646H80.3535V7.61621C80.3535 6.039 79.0742 4.75993 77.4971 4.75977H62.6709V0H77.4971Z" fill="#EAEAEA"/>
<rect x="69.1147" y="66.8333" width="43.8933" height="60.7874" rx="21.9466" fill="white" stroke="#333333" stroke-width="4.75884"/>
<path d="M92.2761 77.2649C91.5839 76.7684 90.2588 74.4047 90.4961 68.9227V67.1351L92.2761 66.2412L99.0992 68.9227L105.922 72.4979L112.746 83.5216L112.152 95.4391H90.4961V90.0763L94.056 88.5866L94.6494 80.2443L92.2761 77.2649Z" fill="#20CBCA"/>
<rect x="87.5074" y="76.367" width="7.10752" height="11.9257" rx="3.55376" fill="white" stroke="#333333" stroke-width="4.75884"/>
<line x1="115.387" y1="95.4351" x2="69.1084" y2="95.4351" stroke="#333333" stroke-width="4.75884"/>
<line x1="91.0673" y1="68.0289" x2="91.0673" y2="74.5835" stroke="#333333" stroke-width="4.75884"/>
<line x1="91.0673" y1="88.8846" x2="91.0673" y2="95.4392" stroke="#333333" stroke-width="4.75884"/>
<line x1="121.92" y1="83.5256" x2="129.621" y2="83.5256" stroke="#20CBCA" stroke-width="4.75884" stroke-linecap="round"/>
<line x1="2.37942" y1="-2.37942" x2="9.82973" y2="-2.37942" transform="matrix(0.865092 -0.501613 0.498388 0.866954 117.531 76.9341)" stroke="#20CBCA" stroke-width="4.75884" stroke-linecap="round"/>
<line x1="2.37942" y1="-2.37942" x2="9.85601" y2="-2.37942" transform="matrix(0.498388 -0.866954 0.865092 0.501613 113.009 68.7023)" stroke="#20CBCA" stroke-width="4.75884" stroke-linecap="round"/>
<rect x="69.1147" y="66.8333" width="43.8933" height="60.7874" rx="21.9466" stroke="#333333" stroke-width="4.75884"/>
</svg>
